<?xml version="1.0" encoding="UTF-8"?>
<svg enable-background="new 0 0 1105.6 1080" version="1.1" viewBox="0 0 1105.6 1080" xml:space="preserve" xmlns="http://www.w3.org/2000/svg" xmlns:xlink="http://www.w3.org/1999/xlink">
<g opacity=".3">
	
		<path d="m1026.7 80.7v804.3h-947.9v-804.3h947.9m3.1-3.1h-954.1v810.5h954.1v-810.5z" fill="#C4ECFE"/>
	
	
		
			
				<rect x="306.5" y="77.6" width="2.9" height="810.5" fill="#C4ECFE"/>
			
			
				<rect x="427.9" y="77.6" width="2.9" height="810.5" fill="#C4ECFE"/>
			
			
				<rect x="306.5" y="77.6" width="2.9" height="810.5" fill="#C4ECFE"/>
			
			
				<rect x="185.1" y="77.6" width="2.9" height="810.5" fill="#C4ECFE"/>
			
			
				<rect x="549.3" y="77.6" width="2.9" height="810.5" fill="#C4ECFE"/>
			
			
				<rect x="670.7" y="77.6" width="2.9" height="810.5" fill="#C4ECFE"/>
			
			
				<rect x="790.6" y="77.6" width="2.9" height="810.5" fill="#C4ECFE"/>
			
			
				<rect x="910.5" y="77.6" width="2.9" height="810.5" fill="#C4ECFE"/>
			
		
	
</g>
<linearGradient id="j" x1="-6675.4" x2="-6675.4" y1="651.52" y2="509.81" gradientTransform="matrix(-1 0 0 -1 -5767.2 1392)" gradientUnits="userSpaceOnUse">
	<stop stop-color="#FFD8A1" offset="0"/>
	<stop stop-color="#fff" offset=".9958"/>
</linearGradient>
<path d="m786.7 888.1c69.2 0 67-105 127.2-118.9 24.1-5.6 37.1-23.3 48.3-42.7 18.5-32.2 67.6-19.2 67.6 18v143.6h-243.1z" fill="url(#j)"/>
<rect x="145.1" y="883.9" width="383.7" height="4.1" fill="#2B2B2B"/>

	
		<linearGradient id="i" x1="617.18" x2="617.18" y1="223.4" y2="843.14" gradientTransform="matrix(1 0 0 -1 0 1080)" gradientUnits="userSpaceOnUse">
		<stop stop-color="#6B9C83" offset="0"/>
		<stop stop-color="#A6A6A4" offset=".401"/>
		<stop stop-color="#9F9FC8" offset=".5011"/>
		<stop stop-color="#9FCCEC" offset=".5908"/>
		<stop stop-color="#FFE7B0" offset="1"/>
	</linearGradient>
	<path d="m665.5 830.8v4c-0.1 12.9-0.4 25.7-0.9 38.6h-79.9c0.6-16 0.9-31.9 1-47.8v-14.8c-0.1-19.3-0.5-38.6-1.1-57.8 0-1.4-0.1-2.7-0.2-4.1-2.4-65.7-7.9-131.2-14.1-196.7-0.2-2.3-0.4-4.7-0.7-7-0.3-2.8-0.5-5.5-0.8-8.3h79.9c1.7 17.4 3.3 34.8 4.9 52.2l1.2 14.1c0.1 1.3 0.2 2.7 0.3 4 6.4 74.3 11.1 148.8 10.4 223.6z" fill="url(#i)"/>
	
		<path d="m654.5 830.8c2.9-18.8-2.4-37.4-15-52.7-13.4-16.2-34-27-55.1-29.3 0.1 1.4 0.1 2.7 0.2 4.1 19.9 2.2 39.2 12.4 51.8 27.7 12.4 15 17.3 33.4 13.8 51.8-0.1 0.6 0 1.2 0.4 1.7s1 0.7 1.5 0.7h13.4v-4h-11z" fill="#64937B"/>
	
	
		<path d="m618.6 817.6c-0.4 2.7-0.6 4-1.1 6.7-0.1 0.7-0.5 1-1.2 1h-0.2c-2.1-0.4-3.2-0.6-5.3-1-0.3 1.5-0.7 2.9-1.1 4.1s-0.9 2.4-1.4 3.4c-0.2 0.6-0.6 0.9-1.2 0.9h-0.2c-2.3-0.4-3.5-0.6-5.8-1-0.3-0.1-0.6-0.2-0.7-0.5-0.2-0.2-0.2-0.5-0.2-0.8v-0.1c0.2-0.6 0.4-1.4 0.7-2.4s0.5-2 0.8-3.1 0.5-2.1 0.7-3.2c0.2-1 0.4-1.9 0.5-2.6 0.1-0.9 0.2-1.8 0.2-2.6s-0.2-1.5-0.5-2-0.7-1-1.4-1.3c-0.6-0.3-1.5-0.5-2.5-0.5-0.7 0-1.4 0.2-2 0.7-0.6 0.4-1.4 1.3-2.4 2.4-2.5 3-3.7 4.5-6.2 7.4-0.8 1-1.6 1.8-2.4 2.5v-14.8c0.6-0.8 1.3-1.7 2.1-2.8 1.7-2.4 3.5-4 5.4-5 1.9-0.9 3.8-1.4 5.6-1.4 2.1 0 4 0.3 5.7 1 1.7 0.6 3.1 1.6 4.2 2.8s2 2.7 2.6 4.3c0.6 1.7 0.8 3.5 0.7 5.6 2.3 0.4 3.4 0.6 5.6 1 0.3 0.1 0.6 0.3 0.8 0.5s0.3 0.5 0.2 0.8z" fill="#FAE6B3"/>
	
	<path d="m653.6 589c-29.2-7.9-56.1-27.3-74-52.2h69.2l4.8 52.2z" fill="#729ACF"/>
	
		
			<path d="m655.2 607c-32.3-7.9-62.7-27.4-84.9-54.9-0.2-2.3-0.4-4.7-0.7-7 13 17.5 29.8 32.3 48.9 43.2 11.7 6.7 23.9 11.6 36.3 14.8 0.1 1.3 0.2 2.6 0.4 3.9z" fill="#86A092"/>
		
	

<polygon points="653.4 588.3 572.2 577.9 568.2 535.3 648.8 535.3" enable-background="new" fill="#2B2B2B" opacity=".42"/>

	
		<rect transform="matrix(.7649 -.6441 .6441 .7649 -151.53 435.49)" x="517.02" y="416.64" width="7.7" height="17.399" fill="#64937B"/>


	
		<rect transform="matrix(.5547 -.8321 .8321 .5547 -16.491 883.91)" x="810.32" y="453.36" width="14.401" height="8" fill="#64937B"/>


	
		<rect transform="matrix(.8321 -.5547 .5547 .8321 -168.46 370.43)" x="520.53" y="456.22" width="14.001" height="14.401" fill="#D0E5F6"/>


	<path d="m496 302.6-65 89.2c-11.7 16-34.1 19.5-50.2 7.8-1.2-0.9-2.4-1.8-3.4-2.9l-2.2-2.1-81.6-77.6c-15.4-14.7-16-39-1.3-54.4s39-16 54.4-1.3l81.6 77.6-55.8 2.9 79.6-79.8 43.9 40.6z" fill="#EA7068"/>
	<path d="m452 261.9 19.9-20c10.8-10.9 28.4-10.9 39.3-0.1 9.9 9.8 10.8 25.2 2.8 36.1l-18 24.6" fill="#FDC068"/>
	<path d="m476.8 237.3s-8 40 8.1 80.6l29.1-39.9-18-44.2s-11.7-0.5-19.2 3.5z" fill="#2B2B2B"/>
	<path d="m418.5 330.1c-0.4 0-0.7-0.1-1-0.4l-17.4-16.6c-0.6-0.6-0.6-1.5 0-2.1s1.5-0.6 2.1 0l17.4 16.6c0.6 0.6 0.6 1.5 0 2.1-0.3 0.2-0.7 0.4-1.1 0.4z" fill="#2B2B2B"/>


	<path d="m914.8 294.9h-10c0-37.1 34.1-57.6 64.2-75.7 26.6-16 51.8-31.1 51.8-54.7h10c0 29.2-28.8 46.5-56.6 63.3-29.2 17.5-59.4 35.6-59.4 67.1z" fill="#F9D5FF"/>


	<path d="m378.8 365.6c-7-38.3-33-31.8-27.5-59.4s-12.7-61.6-42.2-56.3c-22.7 4.1-24.4 3.5-34 5.2-30.3 5.5-45.5 40.1-31.6 67.5 0 0-12.8 40.2-8 66.5l143.3-23.5z" fill="#EA7068"/>
	<path d="m312.7 251.4c4.2 0.2 4.5 1.6 5.8 5.6 4.1 12.3 4.7 28.8-11.9 31.3-19.8 3-42-24.9-42-24.9s-4.6-7.5 22.8-9.9c0.1-0.1 7.1-3 25.3-2.1z" fill="#fff"/>
	
		<linearGradient id="a" x1="383.4" x2="383.4" y1="553.73" y2="1010.9" gradientTransform="matrix(1 0 0 -1 0 1392)" gradientUnits="userSpaceOnUse">
		<stop stop-color="#77879D" offset="0"/>
		<stop stop-color="#A1978E" offset=".0893"/>
		<stop stop-color="#C9A780" offset=".1883"/>
		<stop stop-color="#E5B275" offset=".2791"/>
		<stop stop-color="#F7B96F" offset=".3578"/>
		<stop stop-color="#FDBB6D" offset=".4155"/>
		<stop stop-color="#FDBB9F" offset=".4989"/>
		<stop stop-color="#D1D2D1" offset=".599"/>
		<stop stop-color="#FECEAA" offset="1"/>
	</linearGradient>
	<path d="m374.3 371.6c12.2 16.6 23.2 33.8 33.9 51.3s20.9 35.2 30.8 53.1c4.9 9 9.8 18 14.5 27l3.6 7 2.2 4.2c0.7 1.4 1.5 2.8 2.1 4.3 2.7 5.7 5.3 11.5 7.6 17.4 2.4 5.9 4.5 11.8 6.3 17.9l1.4 4.5 2.6 9 1.1 4.6c2.9 12.2 5 24.6 6.3 37 0.4 3.1 0.5 6.2 0.8 9.3 0.2 3.1 0.3 6.2 0.4 9.3s0.1 6.2 0.1 9.3l-0.2 9.2c-0.5 10.3-1.2 20.5-1.7 30.8-0.7 10.3-1.4 20.5-2.1 30.8-0.8 10.3-1.5 20.5-2.5 30.8l-1.4 15.4-1.5 15.4c-0.5 5.1-1.1 10.3-1.6 15.4s-1.2 10.3-1.8 15.4l-1.9 15.4c-0.3 2.6-0.6 5.1-1 7.7l-1.1 7.7c-0.8 5.1-1.4 10.3-2.3 15.4-0.9 5.2-1.6 10.3-2.6 15.5l-74.6 3.1-5.1-122.6-2.5-61.3-1.3-30.6-0.3-6-0.5-5.9c-0.2-2-0.4-3.9-0.7-5.9-0.3-1.9-0.5-3.9-0.9-5.9-2.6-15.6-7.3-30.8-13.7-45.2-1.6-3.6-3.4-7.1-5.2-10.6-0.9-1.8-1.9-3.5-2.8-5.2l-3.7-6.5-15.2-26.6-61-106.5 95.5-54.4z" fill="url(#a)"/>
	
		
			<defs>
				<path id="h" d="m374.3 371.6c12.2 16.6 23.2 33.8 33.9 51.3s20.9 35.2 30.8 53.1c4.9 9 9.8 18 14.5 27l3.6 7 2.2 4.2c0.7 1.4 1.5 2.8 2.1 4.3 2.7 5.7 5.3 11.5 7.6 17.4 2.4 5.9 4.5 11.8 6.3 17.9l1.4 4.5 2.6 9 1.1 4.6c2.9 12.2 5 24.6 6.3 37 0.4 3.1 0.5 6.2 0.8 9.3 0.2 3.1 0.3 6.2 0.4 9.3s0.1 6.2 0.1 9.3l-0.2 9.2c-0.5 10.3-1.2 20.5-1.7 30.8-0.7 10.3-1.4 20.5-2.1 30.8-0.8 10.3-1.5 20.5-2.5 30.8l-1.4 15.4-1.5 15.4c-0.5 5.1-1.1 10.3-1.6 15.4s-1.2 10.3-1.8 15.4l-1.9 15.4c-0.3 2.6-0.6 5.1-1 7.7l-1.1 7.7c-0.8 5.1-1.4 10.3-2.3 15.4-0.9 5.2-1.6 10.3-2.6 15.5l-74.6 3.1-5.1-122.6-2.5-61.3-1.3-30.6-0.3-6-0.5-5.9c-0.2-2-0.4-3.9-0.7-5.9-0.3-1.9-0.5-3.9-0.9-5.9-2.6-15.6-7.3-30.8-13.7-45.2-1.6-3.6-3.4-7.1-5.2-10.6-0.9-1.8-1.9-3.5-2.8-5.2l-3.7-6.5-15.2-26.6-61-106.5 95.5-54.4z"/>
			</defs>
			<clipPath id="g">
				<use xlink:href="#h"/>
			</clipPath>
			<path d="m349.8 468.5c4 27.8 4 49.9 24 76.4s40 77.4 28 104.4-16.1 69.4-16.1 69.4l-39.2-180.9 3.3-69.3z" clip-path="url(#g)" fill="#2B2B2B"/>
		
	
	
		<linearGradient id="f" x1="219.16" x2="219.16" y1="553.73" y2="1010.9" gradientTransform="matrix(1 0 0 -1 0 1392)" gradientUnits="userSpaceOnUse">
		<stop stop-color="#77879D" offset="0"/>
		<stop stop-color="#A1978E" offset=".0893"/>
		<stop stop-color="#C9A780" offset=".1883"/>
		<stop stop-color="#E5B275" offset=".2791"/>
		<stop stop-color="#F7B96F" offset=".3578"/>
		<stop stop-color="#FDBB6D" offset=".4155"/>
		<stop stop-color="#FDBB9F" offset=".4989"/>
		<stop stop-color="#D1D2D1" offset=".599"/>
		<stop stop-color="#FECEAA" offset="1"/>
	</linearGradient>
	<path d="m350.9 405.8c0.6 21-0.1 41.9-1.1 62.7-1.1 20.8-2.7 41.6-4.7 62.4l-2 19.5-0.2 2.1-0.3 2.3c-0.4 3-0.7 6.1-1.2 9.1s-0.9 6.1-1.4 9.1c-0.6 3-1 6-1.7 9.1l-2 9-2.2 8.9c-0.8 3-1.6 5.9-2.4 8.9-0.8 2.9-1.8 5.8-2.7 8.8-0.9 2.9-1.9 5.8-2.9 8.7s-2 5.8-3.1 8.6c-4.3 11.4-9.3 22.5-14.7 33.4-5.4 10.8-11.5 21.3-18 31.5-0.4 0.6-0.8 1.3-1.1 1.8l-1.1 1.6-2.2 3.3-13.2 19.5c-5.9 8.7-11.9 17.3-17.9 25.9-6.1 8.6-12 17.2-18.2 25.7l-9.2 12.8-9.3 12.7c-3.1 4.3-6.3 8.5-9.4 12.7s-6.4 8.4-9.6 12.6l-9.7 12.6c-1.6 2.1-3.2 4.2-4.9 6.3l-5 6.2c-3.3 4.1-6.6 8.3-10 12.4s-6.8 8.2-10.3 12.2l-72-17.1 95.6-183.6 14.8-27.4c4.1-7.7 7.9-15.5 11.2-23.5 6.7-16 11.9-32.7 15.5-49.7 1.8-8.5 3.2-17.1 4.2-25.7 0.3-2.2 0.4-4.3 0.7-6.5l0.2-1.6 0.2-1.8 0.3-3.9 1.3-15.6 10.1-124.8 109.6 8.8z" fill="url(#f)"/>
	
		<linearGradient id="e" x1="307.15" x2="307.15" y1="553.73" y2="1010.9" gradientTransform="matrix(1 0 0 -1 0 1392)" gradientUnits="userSpaceOnUse">
		<stop stop-color="#77879D" offset="0"/>
		<stop stop-color="#A1978E" offset=".0893"/>
		<stop stop-color="#C9A780" offset=".1883"/>
		<stop stop-color="#E5B275" offset=".2791"/>
		<stop stop-color="#F7B96F" offset=".3578"/>
		<stop stop-color="#FDBB6D" offset=".4155"/>
		<stop stop-color="#FDBB9F" offset=".4989"/>
		<stop stop-color="#D1D2D1" offset=".599"/>
		<stop stop-color="#FECEAA" offset="1"/>
	</linearGradient>
	<path d="m235.5 389.2c3.7 20.3 30.3 46.7 65.6 40.6l28.3-5.8c32.2-5.6 52.9-38.9 48.9-60.7l-142.8 25.9z" fill="url(#e)"/>
	<path d="m317.5 226.6-26.7 3.4c-13.8 1.8-26.5-8-28.3-21.9l-5.1-40.3c-2.8-22.1 12.8-42.4 35-45.2 22.1-2.8 42.4 12.8 45.2 35l4.7 37c2 15.7-9.1 30-24.8 32z" fill="#FDC068"/>
	
		
			<defs>
				<path id="d" d="m317.5 226.6-26.7 3.4c-13.8 1.8-26.5-8-28.3-21.9l-5.1-40.3c-2.8-22.1 12.8-42.4 35-45.2 22.1-2.8 42.4 12.8 45.2 35l4.7 37c2 15.7-9.1 30-24.8 32z"/>
			</defs>
			<clipPath id="c">
				<use xlink:href="#d"/>
			</clipPath>
			<circle cx="340" cy="169.1" r="4.6" clip-path="url(#c)" fill="#2B2B2B"/>
		
	
	<path d="m266.3 266.7 8.8-11.6s-17.6 3.2-25.5 14.7l16.7-3.1z" fill="#2B2B2B"/>
	<path d="m302.2 275-35.9-8.3-6.1-76.7 42.7-5.4 13.8 76.6c1.5 8.5-6.1 15.7-14.5 13.8z" fill="#FDC068"/>
	<path d="m330.5 184.5c-0.4 0-0.9-0.2-1.2-0.6-0.5-0.6-0.4-1.6 0.2-2.1l3.3-2.6c0.3-0.3 0.4-0.7 0.4-1.1 0-0.5-0.2-0.9-0.5-1.2l-6.5-6c-0.6-0.6-0.6-1.5-0.1-2.1 0.6-0.6 1.5-0.6 2.1-0.1l6.5 6c0.9 0.9 1.4 2 1.5 3.3 0 1.3-0.5 2.5-1.3 3.4l-0.1 0.1-3.4 2.7c-0.2 0.2-0.6 0.3-0.9 0.3zm3.4-4.2z" fill="#2B2B2B"/>
	<path d="m326.5 199.7c-0.3 0-0.6-0.1-0.8-0.2-0.7-0.4-0.9-1.4-0.4-2.1 2.4-3.7 4.9-5.5 7.4-5.4 3.3 0.1 5 3.4 5.1 3.6 0.4 0.7 0.1 1.6-0.6 2s-1.6 0.1-2-0.6c0 0-1.1-1.9-2.6-2-1.3-0.1-3 1.4-4.7 4-0.4 0.5-0.9 0.7-1.4 0.7z" fill="#2B2B2B"/>
	<polygon points="310.6 227.5 293.2 229.7 313.7 244.6" fill="#2B2B2B"/>
	<circle cx="314" cy="172.6" r="4.6" fill="#2B2B2B"/>
	<path d="m263.8 287.2c-1-7.8 3.4-14.2 2.4-22l-39.1-23.2 30.6-38.1-41.9-42-72.9 62.6c-2.5 2.1-4.8 4.8-6.7 7.7-10.8 16.6-6.1 38.8 10.5 49.5l2.9 1.9 86.4 56.1c17.3 11.3 40.4 6.8 52.3-9.9-11.8-12.1-19.9-26.3-24.5-42.6z" fill="#EA7068"/>
	<path d="m333.1 143.6 13.5-18c6.6-8.9 4.4-21.5-4.8-27.6-8.5-5.6-20-3.6-26.1 4.6-1.6 2.1-4.6 2.3-6.4 0.3l-6.3-6.8c-4.5-4.9-11.7-6.4-17.8-3.6-4.6 2.1-7.7 6.1-8.8 10.7-2 8.7-6.3 16.8-12.9 22.9l-17.1 15.7 15.5 71.4 10.5-3.3 2.2-20.3-1.7-15.2c-0.5-4.2 3.9-7.2 7.6-5.3l6.6 3.4 10-26.3 36-2.6z" fill="#2B2B2B"/>
	<path d="m272.1 191s13.6-16.3 9.6-26.8-17.3-2.4-17.3-2.4l7.7 29.2z" fill="#2B2B2B"/>
	<path d="m215.8 161.9 15.5-13.4c11.7-10 29.2-8.7 39.3 3 8.9 10.3 8.8 25.3 0.6 35.6l-13.5 16.9-41.9-42.1z" fill="#FDC068"/>
	<path d="m522.9 887.9-119.4-0.5c-6.2 0-11.3-5-11.5-11.3l-0.3-15.1 75.5 1.1 57.2 14.3c6.6 1.7 5.4 11.6-1.5 11.5z" fill="#2B2B2B"/>
	<path d="m204.3 887.9-105.3-0.5c-6.2 0-11.3-5-11.5-11.3l-0.3-15.1 75.5 1.1 43 14.3c6.7 1.7 5.5 11.6-1.4 11.5z" fill="#2B2B2B"/>
	<path d="m303.4 168.5c-0.3 0-0.7-0.1-1-0.4-0.6-0.5-0.7-1.5-0.2-2.1l9.3-10.9c0.5-0.6 1.5-0.7 2.1-0.2s0.7 1.5 0.2 2.1l-9.3 10.9c-0.3 0.4-0.7 0.6-1.1 0.6z" fill="#2B2B2B"/>
	<path d="m340.3 162.4c-0.4 0-0.8-0.1-1-0.4l-8.8-8.6c-0.6-0.6-0.6-1.5 0-2.1s1.5-0.6 2.1 0l8.8 8.6c0.6 0.6 0.6 1.5 0 2.1-0.3 0.2-0.7 0.4-1.1 0.4z" fill="#2B2B2B"/>
	<path d="m344.9 542.2h-0.2c-0.8-0.1-1.4-0.9-1.2-1.7 3.6-21.7 5.5-97.1 5.5-97.9s0.7-1.5 1.5-1.5 1.5 0.7 1.5 1.5c-0.1 3.1-1.8 76.4-5.5 98.3-0.2 0.8-0.9 1.3-1.6 1.3z" fill="#2B2B2B"/>
	<path d="m222.4 641.7c-0.9 0-1.5-0.7-1.5-1.5l2-64.4c0-0.8 0.7-1.5 1.5-1.5s1.5 0.7 1.5 1.5l-2 64.4c0 0.9-0.7 1.5-1.5 1.5z" fill="#2B2B2B"/>
	<path d="m236 338.7 22.9 16.4-24.4 23.5c0-0.1-0.4-11.5 1.5-39.9z" fill="#2B2B2B"/>
	<path d="m378.4 363.8c-0.6 0-1.2-0.4-1.4-1l-26.1-67.4c-0.3-0.8 0.1-1.6 0.9-1.9s1.6 0.1 1.9 0.9l26.1 67.4c0.3 0.8-0.1 1.6-0.9 1.9-0.1 0.1-0.3 0.1-0.5 0.1z" fill="#2B2B2B"/>
	<path d="m235.5 389.7c-0.7 0-1.3-0.5-1.5-1.2-0.1-0.8 0.4-1.6 1.2-1.7l142.9-25.9c0.8-0.1 1.6 0.4 1.7 1.2s-0.4 1.6-1.2 1.7l-142.9 25.9h-0.2z" fill="#2B2B2B"/>
	<path d="m211.8 260.8c-0.3 0-0.7-0.1-1-0.4-0.6-0.5-0.7-1.5-0.2-2.1l15.3-18.2c0.5-0.6 1.5-0.7 2.1-0.2s0.7 1.5 0.2 2.1l-15.3 18.2c-0.2 0.4-0.7 0.6-1.1 0.6z" fill="#2B2B2B"/>
	<path d="m191.6 491.7h-10c0-12.2-27.1-24.1-51-34.5-30.8-13.4-59.9-26.1-59.9-46.6h10c0 14 28.6 26.5 53.9 37.5 29.3 12.7 57 24.8 57 43.6z" fill="#F9D5FF"/>
	<path d="m119.8 179.3c-0.8 0-1.6-0.2-2.3-0.7l-19.5-13.4c-1.8-1.3-2.3-3.7-1-5.6 1.3-1.8 3.7-2.3 5.6-1l19.5 13.4c1.8 1.3 2.3 3.7 1 5.6-0.8 1.1-2 1.7-3.3 1.7z" fill="#F7E5B5"/>


	<path d="m929.9 524.8v353.3h-459.7v-353.3h459.7m10-10h-479.7v373.3h479.7v-373.3z" fill="#2B2B2B"/>
	
		
			<linearGradient id="b" x1="691.64" x2="691.64" y1="226.39" y2="785.98" gradientTransform="matrix(1 0 0 -1 0 1080)" gradientUnits="userSpaceOnUse">
			<stop stop-color="#4A6C5B" offset="0"/>
			<stop stop-color="#767674" offset=".401"/>
			<stop stop-color="#777796" offset=".5011"/>
			<stop stop-color="#7CA0B9" offset=".5908"/>
			<stop stop-color="#CBB88C" offset="1"/>
		</linearGradient>
		<path d="m731.9 607.9c-0.1-2.8-0.3-5.5-0.4-8.3 0.6-1.1 1.1-2.1 1.6-3-0.6 0.3-1.1 0.6-1.7 0.9-0.1-1.4-0.1-2.7-0.2-4.1-0.3-6.3-0.7-12.5-1.1-18.8-0.8-13.3-1.8-26.6-2.9-39.9-26.2 0-52.5 0.1-78.7 0.1 1.4 17.4 2.6 34.8 3.6 52.2 0.3 4.8 0.5 9.5 0.8 14.3 0.1 1.3 0.1 2.6 0.2 3.9 3.8 74.5 4 149.1 0.6 223.6-0.1 1.3-0.1 2.7-0.2 4-0.6 13.5-1.4 27-2.3 40.4 26.2 0 52.5-0.1 78.7-0.1 1.7-25.6 2.9-51.2 3.7-76.8 0.1-2.5 0.2-5 0.2-7.4 1.8-60.2 1.1-120.6-1.9-181z" fill="url(#b)"/>
		
			<path d="m715.5 828.9h-36.8-25c-0.1 1.3-0.1 2.7-0.2 4h25.2 38.4c0.9 0 1.7-0.7 2-1.6 2.8-12.3 7.8-24.2 14.6-34.9 0.1-2.5 0.2-5 0.2-7.4-8.6 12-14.9 25.6-18.4 39.9z" fill="#446453"/>
		
		<path d="m730.1 574.7c-13.7 10.2-30.7 16.3-49.3 16.4-9.7 0.1-19.4-1.3-28.7-4-1-17.4-2.2-34.8-3.6-52.2 26.2 0 52.5-0.1 78.7-0.1 1.1 13.3 2 26.6 2.9 39.9z" fill="#56759D"/>
		
			
				<path d="m731.4 597.6c-14.3 7.4-30.6 11.7-47.4 11.7h-0.8c-10.1-0.1-20.2-1.4-30.2-3.9-0.1-1.3-0.1-2.6-0.2-3.9 10 2.6 20.2 4 30.4 4.1h0.7c16.8 0 33-4.4 47.2-12 0.2 1.3 0.2 2.6 0.3 4z" fill="#5E7066"/>
			
			
				<path d="m731.9 607.9c-6.5 12.8-7.1 13-7.8 13.2-0.2 0.1-0.4 0.1-0.6 0.1-0.3 0-0.6-0.1-0.9-0.2-0.4-0.2-0.8-0.6-0.9-1.1-0.2-0.5-0.1-1 0.1-1.4 4.5-8.8 7.5-14.8 9.7-18.9 0.2 2.8 0.3 5.6 0.4 8.3z" fill="#5E7066"/>
			
		
		
			<path d="m672 792.2h-0.2c-1-0.1-1.7-1-1.6-2.1 4.2-36 5.4-72.4 3.9-111.1 0-1 0.8-1.9 1.8-1.9 1.1 0 1.9 0.8 1.9 1.8 1.6 38.9 0.3 75.5-3.9 111.7-0.2 0.9-1 1.6-1.9 1.6z" fill="#787D9B"/>
		
		
			<path d="m701.8 766.3h-0.1c-1-0.1-1.8-1-1.7-2 1.3-19.1 2-38.6 2-59.6 0-1 0.8-1.9 1.9-1.9s1.9 0.8 1.9 1.9c0 21.1-0.7 40.7-2 59.8-0.2 1-1 1.8-2 1.8z" fill="#787D9B"/>
		
		<path d="m667.1 565.4c21.2 101.1 33.8 299.6 34.3 307.9-16.7 0-33.4 0.1-50.1 0.1 0.9-13.5 1.6-27 2.3-40.4 0.1-1.3 0.1-2.7 0.2-4 3.4-74.6 3.2-149.1-0.6-223.6-0.1-1.3-0.1-2.6-0.2-3.9-0.2-4.8-0.5-9.5-0.8-14.3-1-17.4-2.2-34.8-3.6-52.2 26.2 0 52.5-0.1 78.7-0.1 0.7 9 1.4 18 2 27l-62.2 3.5z" enable-background="new" opacity=".42"/>
	
	
		
			
				<linearGradient id="n" x1="516.3" x2="516.3" y1="224.84" y2="845.49" gradientTransform="matrix(1 0 0 -1 0 1080)" gradientUnits="userSpaceOnUse">
				<stop stop-color="#4A6C5B" offset="0"/>
				<stop stop-color="#767674" offset=".401"/>
				<stop stop-color="#777796" offset=".5011"/>
				<stop stop-color="#7CA0B9" offset=".5908"/>
				<stop stop-color="#CBB88C" offset="1"/>
			</linearGradient>
			<path d="m577.1 536.8s0.6 12.6 0.6 33.4c0 2.8 0 5.7-0.1 8.7-0.5 43.9-4.3 115.9-20.2 185-0.3 1.4-0.6 2.8-1 4.2-3.3 13.8-7.1 27.4-11.4 40.6-1.3 3.9-2.6 7.7-4 11.5-6.5 17.9-14 35-23 50.6-21-8.2-42.1-16.4-63.1-24.6 46.6-94.6 55.6-204.4 60.9-315.6l39.6 4 4 0.4 17.7 1.8z" fill="url(#n)"/>
			
				<path d="m559.4 535-4-0.4c-3.1 73.6-7.4 148.7-23 218.9-0.2 1 0.3 1.9 1.2 2.3 8 3.1 15.6 7.3 22.7 12.3 0.3-1.4 0.7-2.8 1-4.2-6.5-4.5-13.4-8.3-20.6-11.2 15.3-70 19.6-144.6 22.7-217.7z" fill="#446453"/>
			
			
				<path d="m545 808.7c-1.3 3.9-2.6 7.7-4 11.5-0.2 0.1-0.3 0.2-0.5 0.3-2.9 1.8-4.4 2.7-7.4 4.5-2.1 1.2-4.1 1.9-6.1 1.9s-3.8-0.3-5.4-0.9c-2-0.8-3.7-1.8-5.1-2.9s-2.4-2.4-3.2-3.7c-0.7-1.4-1.2-2.8-1.4-4.4s-0.1-3.2 0.2-4.9c-2-1.2-3-1.8-5-2.9-0.3-0.2-0.5-0.5-0.7-0.8s-0.2-0.7-0.1-0.9c0.8-2.3 1.2-3.5 2-5.8 0.2-0.6 0.6-0.7 1.3-0.5 0.1 0 0.1 0.1 0.2 0.1 1.9 1.1 2.9 1.7 4.8 2.8 0.6-1.5 1.3-2.9 2-4.2s1.2-2.3 1.7-2.9c0.2-0.2 0.3-0.3 0.5-0.4s0.4-0.1 0.7 0l0.2 0.2c2.3 1.3 3.5 2 5.8 3.3 0.3 0.2 0.5 0.4 0.7 0.7 0.1 0.3 0.2 0.6 0.1 0.8v0.1c-0.7 1.5-1.5 3.3-2.3 5.2s-1.5 3.8-2.1 5.6c-0.2 0.7-0.4 1.3-0.5 1.9s-0.1 1.2 0.1 1.7c0.1 0.5 0.4 1 0.9 1.4 0.4 0.4 1.1 0.8 2 1.2 0.7 0.3 1.3 0.3 2 0.1 0.6-0.2 1.6-0.7 2.7-1.4 2.6-1.8 3.8-2.6 6.3-4.4 2.1-1.5 4.2-2.3 6.3-2.5 1.1 0 2.2 0 3.3 0.2z" fill="#C6B68E"/>
			
			
				
					<path d="m574.4 562.2c1 2.7 2.1 5.3 3.2 7.9 0 2.8 0 5.7-0.1 8.7-2.5-5.1-4.7-10.2-6.6-15.4-0.4-1 0.1-2 1.1-2.4 1-0.2 2.1 0.3 2.4 1.2z" fill="#5E7066"/>
				
			
		
		<path d="m577.7 570.2c0 2.8 0 5.7-0.1 8.7-0.2 19.8-1.1 45.3-3.5 73.6-8.9-35.2-27.8-67.2-54.4-91.8l-5.1-4.8-0.1-0.1c0.5-8.4 0.9-16.8 1.3-25.2l39.6 4 4 0.4 17.7 1.8s0.6 12.6 0.6 33.4z" enable-background="new" fill="#2B2B2B" opacity=".42"/>
	
	
		
			<linearGradient id="m" x1="843.75" x2="843.75" y1="227.67" y2="942.21" gradientTransform="matrix(1 0 0 -1 0 1080)" gradientUnits="userSpaceOnUse">
			<stop stop-color="#4A6C5B" offset="0"/>
			<stop stop-color="#767674" offset=".401"/>
			<stop stop-color="#777796" offset=".5011"/>
			<stop stop-color="#7CA0B9" offset=".5908"/>
			<stop stop-color="#CBB88C" offset="1"/>
		</linearGradient>
		<path d="m879.1 869.9h-20.7c-4.5-16.6-8.7-33.4-12.6-50.1-0.9-4-1.9-8-2.8-12.1-5-22.2-9.5-44.6-13.4-67-3-17.2-5.7-34.6-8.1-51.9-7.2-52.2-11.6-104.8-13.1-157.7h27.7c14.9 112.6 38.8 226.1 43 338.8z" fill="url(#m)"/>
		<path d="m821.5 688.8c2.4 17.3 5.1 34.7 8.1 51.9-2.5-17.2-5.3-34.6-8.1-51.9z" fill="#446453"/>
		<path d="m851.4 819.6c0.1 0.7-0.3 1-1 1h-0.2c-1.8-0.3-2.9-0.5-4.4-0.8-0.9-4-1.9-8-2.8-12.1 0.3 0.9 0.6 1.9 0.8 2.9 2.3 0.4 3.5 0.6 5.8 1 0.3 0.1 0.6 0.3 0.9 0.5 0.3 0.3 0.4 0.6 0.4 0.9 0.2 2.6 0.3 4 0.5 6.6z" fill="#C6B68E"/>
		<path d="m841.8 572.1h-31.7c-0.8-13.6-1.4-27.3-1.8-41h27.7c1.9 13.7 3.8 27.3 5.8 41z" enable-background="new" fill="#2B2B2B" opacity=".42"/>
	
	
		
			
				<linearGradient id="l" x1="779.55" x2="779.55" y1="214.14" y2="880.46" gradientTransform="matrix(1 0 0 -1 0 1080)" gradientUnits="userSpaceOnUse">
				<stop stop-color="#5B8570" offset="0"/>
				<stop stop-color="#8F8F8C" offset=".401"/>
				<stop stop-color="#8B8BAF" offset=".5011"/>
				<stop stop-color="#8DB6D2" offset=".5908"/>
			</linearGradient>
			<path d="m832.5 872.9h-78.2c-3.8-25.7-7.2-51.4-10.2-77.2-0.3-2.3-0.5-4.6-0.8-6.8-6.9-60-11.6-120.2-14.3-180.6-0.1-2.7-0.2-5.5-0.4-8.2 0-0.6-0.1-1.1-0.1-1.7-0.1-1.4-0.1-2.7-0.2-4.1-0.2-6.3-0.5-12.5-0.7-18.8-0.4-13.1-0.7-26.3-1-39.4h78.4c0.9 51.6 3.2 103 7.2 154.3 2 19.5 3.8 39 5.1 58.4v0.2c2.1 20.9 4.4 41.9 7 62.8 0.5 3.7 0.9 7.4 1.4 11 2.1 16.7 4.4 33.4 6.8 50.1z" fill="url(#l)"/>
			
				<path d="m817.3 748.8c-1.3-19.4-3.1-38.9-5.1-58.4-3.9-37.2-8.8-74.3-13.6-110.6-1.9-14.5-3.9-29.1-5.7-43.7h-4c1.9 14.8 3.8 29.6 5.8 44.3 7.2 54.6 14.7 111 18.5 166.7-21.5 0.3-41.7 9.2-57.1 25.2-4.9 5.1-9.2 10.7-12.7 16.8 0.2 2.3 0.5 4.6 0.8 6.8 3.8-7.6 8.8-14.6 14.8-20.9 14.9-15.4 34.5-23.9 55.3-23.9h1.1c0.5 0 1.1-0.2 1.5-0.6 0.3-0.4 0.5-0.8 0.5-1.3-0.1-0.3-0.1-0.4-0.1-0.4z" fill="#557D68"/>
			
			
				<path d="m825.7 822.7c-0.4-0.1-0.8-0.1-1.2-0.2-0.1 1.5-0.3 2.8-0.6 4.1-0.2 1.2-0.5 2.4-0.9 3.4-0.1 0.6-0.5 0.9-1.1 0.9h-0.2c-2.3-0.4-3.5-0.6-5.9-1-0.3-0.1-0.6-0.2-0.8-0.5-0.2-0.2-0.3-0.5-0.3-0.8v-0.1c0.1-0.6 0.2-1.4 0.3-2.4s0.2-2 0.3-3.1 0.2-2.1 0.3-3.2c0.1-1 0.1-1.9 0.1-2.6 0-0.9 0-1.8-0.2-2.6-0.1-0.8-0.4-1.4-0.7-2-0.4-0.5-0.8-1-1.5-1.3-0.6-0.3-1.5-0.5-2.5-0.5-0.7 0-1.3 0.2-1.9 0.7-0.6 0.4-1.3 1.2-2.1 2.4-2 3-3.1 4.4-5.1 7.4-1.4 2-3 3.5-4.7 4.3s-3.4 1.2-5 1.2c-2 0-3.8-0.3-5.3-0.9s-2.8-1.4-3.8-2.5-1.9-2.4-2.5-3.9-1-3.2-1.2-5c-2.1-0.4-3.1-0.6-5.2-1-0.3-0.1-0.6-0.3-0.8-0.5-0.2-0.3-0.4-0.6-0.3-0.9 0-2.6 0.1-4 0.1-6.6 0-0.6 0.3-1 1-1h0.2c2 0.4 3 0.5 5 0.9 0.1-1.8 0.3-3.4 0.5-5s0.4-2.8 0.6-3.6c0.1-0.2 0.2-0.5 0.4-0.6 0.2-0.2 0.4-0.3 0.6-0.3h0.8c2.4 0.4 3.6 0.6 6 1 0.3 0.1 0.6 0.2 0.8 0.5 0.2 0.2 0.3 0.5 0.3 0.8v0.1c-0.2 1.8-0.4 3.9-0.5 6.2s-0.2 4.4-0.3 6.5c0 0.8 0 1.5 0.1 2.1s0.3 1.2 0.5 1.7c0.3 0.5 0.7 0.9 1.2 1.1 0.5 0.3 1.2 0.4 2 0.4 0.6 0 1.2-0.2 1.7-0.7 0.5-0.4 1.2-1.3 1.9-2.5 1.7-2.8 2.6-4.1 4.2-6.9 1.4-2.4 3-4 4.8-5 1.7-0.9 3.5-1.4 5.3-1.4 2.1 0 4 0.3 5.7 1 1.7 0.6 3.2 1.6 4.4 2.8 1.3 1.2 2.3 2.6 3 4.3 0.6 1.2 0.9 2.4 1.2 3.8 0.3 3.7 0.8 7.4 1.3 11z" fill="#DFCDA0"/>
			
			<path d="m758.7 536c-6.4 15.8-17.2 29.5-30.9 39.4-0.4-13.1-0.7-26.3-1-39.4h31.9z" fill="#6488B6"/>
			
				
					<path d="m776.1 546.1c-2 5.2-4.4 10.1-7.2 14.8-0.9 1.5-1.9 3-2.9 4.5-2.2 3.2-4.5 6.3-7.1 9.2-1.2 1.4-2.4 2.7-3.6 4-2.2 2.2-4.4 4.4-6.8 6.4-1.6 1.4-3.2 2.7-4.9 4-2.4 1.8-4.9 3.5-7.4 5.1-2.1 1.3-4.2 2.5-6.3 3.7-0.5 0.3-0.9 0.5-1.4 0.7-0.1-1.4-0.1-2.7-0.2-4.1 20-10.8 36.2-28.3 44.2-49.5 0.4-1 1.4-1.4 2.4-1.1 1.1 0.2 1.6 1.3 1.2 2.3z" fill="#73897D"/>
				
				
					<path d="m736.3 593.9c0 0.2-0.1 0.4-0.2 0.5-2.9 5.7-5.3 10.2-7.1 13.8-0.1-2.7-0.2-5.5-0.4-8.2 0.5-0.9 0.9-1.7 1.3-2.4 1.4-2.6 2.3-4 2.8-4.8v-0.1c0.6-0.8 0.9-0.9 1.2-1 0.5-0.1 1.1 0 1.5 0.3 0.8 0.5 1 1.2 0.9 1.9z" fill="#73897D"/>
				
				
					<path d="m739.3 620.7c-0.1 0-0.3 0-0.4-0.1-1-0.2-1.6-1.2-1.4-2.2 4.9-24.5 6.6-31.9 7.5-34.2 0.4-1 0.6-1.1 0.9-1.2 0.5-0.3 1-0.3 1.5-0.2 0.9 0.3 1.4 1.2 1.2 2.1-6.7 34.5-7.5 35-8.3 35.5-0.3 0.2-0.6 0.3-1 0.3z" fill="#73897D"/>
				
				
					<path d="m759.6 622.7c-1 0-1.8-0.8-1.8-1.7 0 0-0.7-11.5-1.3-23-0.9-15.7-1.2-21.1-1-23.1v-0.1c0.1-0.9 0.2-1.1 0.5-1.4 0.3-0.4 0.8-0.6 1.4-0.6 1 0 1.8 0.8 1.8 1.7 0 0.1 0.7 11.5 1.4 22.9 1.4 23.7 1.2 23.9 0.5 24.7-0.5 0.4-1 0.6-1.5 0.6z" fill="#73897D"/>
				
				
					<path d="m780.5 616.4c-0.8 0-1.6-0.6-1.8-1.4 0 0-3.5-13.4-6.9-26.8-4.7-18.7-6.3-24.7-6.6-27v-0.2c-0.1-0.9 0-1.1 0.2-1.4 0.3-0.4 0.7-0.7 1.1-0.9 1-0.2 2 0.3 2.2 1.3 0 0.1 3.5 13.4 7 26.7 7.1 27.5 6.9 27.8 6.3 28.7-0.3 0.4-0.8 0.7-1.3 0.8 0 0.2-0.1 0.2-0.2 0.2z" fill="#73897D"/>
				
			
		
		<path d="m805.7 565.3h-78.2c-0.3-9.8-0.5-19.5-0.7-29.3h78.2c0.2 9.8 0.4 19.5 0.7 29.3z" enable-background="new" fill="#2B2B2B" opacity=".42"/>
	
	
		
			
				<linearGradient id="k" x1="664.71" x2="664.71" y1="504.79" y2="937.49" gradientTransform="matrix(1 0 0 -1 0 1080)" gradientUnits="userSpaceOnUse">
				<stop stop-color="#6B9C83" offset="0"/>
				<stop stop-color="#A6A6A4" offset=".1029"/>
				<stop stop-color="#9F9FC8" offset=".2284"/>
				<stop stop-color="#9FCCEC" offset=".4737"/>
				<stop stop-color="#FFE7B0" offset="1"/>
			</linearGradient>
			<path d="m836.5 514.8h-323.3c-16-135-35-270.1-2.6-404.6h323.3c-32.4 134.5-13.4 269.6 2.6 404.6z" fill="url(#k)"/>
			
				<path d="m795.4 492.6c-10.3-84-21-170.9-17.8-257.2 0-0.5-0.2-1.1-0.6-1.5s-0.9-0.6-1.4-0.6h-1.1c-21.9 0-43.3-9.8-57.1-26.3-12.8-15.2-17.9-34.3-14.5-53.8 0.1-0.6-0.1-1.2-0.4-1.6-0.4-0.5-0.9-0.7-1.5-0.7h-76.7c-1 0-1.8 0.7-2 1.7-8 46-46.4 80.7-89.2 80.7-1.1 0-2 0.9-2 1.9-3.2 86.6 7.5 173.7 17.9 257.9 0.9 7.2 1.8 14.4 2.7 21.7h4l-2.7-22.2c-10.3-83.4-20.9-169.7-17.9-255.3 43.5-1 82.1-36 90.9-82.4h72.7c-2.8 19.8 2.7 39.1 15.8 54.7 14.4 17.1 36.4 27.4 59.2 27.7-3 85.9 7.7 172.3 17.9 255.8 0.9 7.2 1.8 14.4 2.7 21.7h4c-1.1-7.4-2-14.8-2.9-22.2z" fill="#64937B"/>
			
			
				<path d="m539 151.4c2.3 0.4 3.5 0.6 5.8 1 0.3 0.1 0.5 0.2 0.7 0.5 0.2 0.2 0.2 0.5 0.2 0.8v0.1c-0.5 1.9-1 3.9-1.5 6.2s-0.9 4.4-1.2 6.5c-0.1 0.8-0.2 1.5-0.2 2.1s0.1 1.2 0.3 1.7 0.6 0.9 1.1 1.1c0.5 0.3 1.2 0.4 2 0.4 0.6 0 1.3-0.2 1.8-0.7 0.6-0.4 1.3-1.3 2.3-2.5 2.1-2.8 3.1-4.2 5.2-7 1.8-2.4 3.6-4 5.6-5 1.9-0.9 3.8-1.4 5.6-1.4 2.1 0 4 0.3 5.6 1 1.6 0.6 2.9 1.6 4 2.8s1.9 2.7 2.4 4.3c0.5 1.7 0.7 3.5 0.6 5.6 2.2 0.4 3.3 0.6 5.5 1 0.3 0.1 0.6 0.3 0.8 0.5 0.2 0.3 0.3 0.6 0.2 0.9-0.4 2.7-0.6 4-0.9 6.7-0.1 0.7-0.5 1-1.2 1h-0.2c-2.1-0.4-3.2-0.6-5.3-1-0.3 1.5-0.6 2.9-0.9 4.1-0.4 1.2-0.7 2.4-1.1 3.4-0.2 0.6-0.6 0.9-1.1 0.9h-0.2c-2.3-0.4-3.5-0.6-5.8-1-0.3-0.1-0.6-0.2-0.8-0.5-0.2-0.2-0.3-0.5-0.2-0.8v-0.1c0.2-0.6 0.3-1.4 0.5-2.4s0.4-2 0.6-3.1 0.4-2.1 0.6-3.2c0.2-1 0.3-1.9 0.4-2.6 0.1-0.9 0.2-1.8 0.2-2.6s-0.2-1.5-0.5-2-0.7-1-1.3-1.3-1.4-0.5-2.5-0.5c-0.7 0-1.3 0.2-2 0.7-0.6 0.4-1.4 1.3-2.4 2.4-2.4 3-3.6 4.5-6 7.4-1.6 2.1-3.4 3.5-5.2 4.3s-3.5 1.2-5.1 1.2c-2 0-3.8-0.3-5.2-0.9-1.5-0.6-2.7-1.5-3.6-2.5-0.9-1.1-1.7-2.4-2.1-3.9-0.5-1.5-0.7-3.2-0.7-5.1-2.1-0.4-3.1-0.6-5.1-1-0.3-0.1-0.6-0.3-0.8-0.5-0.2-0.3-0.3-0.6-0.2-0.9 0.4-2.7 0.6-4 1-6.7 0.1-0.6 0.5-1 1.1-1h0.2c2 0.4 2.9 0.5 4.9 0.9 0.4-1.8 0.9-3.5 1.3-5.1 0.5-1.6 0.9-2.8 1.3-3.6 0.1-0.2 0.3-0.5 0.5-0.6 0.2-0.2 0.4-0.3 0.7-0.3 0.2 0.3 0.2 0.3 0.3 0.3z" fill="#7F9F8E"/>
			
			
				<path d="m749.8 151.4c2.3 0.4 3.5 0.6 5.8 1 0.3 0.1 0.5 0.2 0.7 0.5 0.2 0.2 0.2 0.5 0.2 0.8v0.1c-0.5 1.9-1 3.9-1.5 6.2s-0.9 4.4-1.2 6.5c-0.1 0.8-0.2 1.5-0.2 2.1s0.1 1.2 0.3 1.7 0.6 0.9 1.1 1.1c0.5 0.3 1.2 0.4 2 0.4 0.6 0 1.3-0.2 1.8-0.7 0.6-0.4 1.3-1.3 2.3-2.5 2.1-2.8 3.1-4.2 5.2-7 1.8-2.4 3.6-4 5.6-5 1.9-0.9 3.8-1.4 5.6-1.4 2.1 0 4 0.3 5.6 1 1.6 0.6 2.9 1.6 4 2.8s1.9 2.7 2.4 4.3c0.5 1.7 0.7 3.5 0.6 5.6 2.2 0.4 3.3 0.6 5.5 1 0.3 0.1 0.6 0.3 0.8 0.5 0.2 0.3 0.3 0.6 0.2 0.9-0.4 2.7-0.6 4-0.9 6.7-0.1 0.7-0.5 1-1.2 1h-0.2c-2.1-0.4-3.2-0.6-5.3-1-0.3 1.5-0.6 2.9-0.9 4.1-0.4 1.2-0.7 2.4-1.1 3.4-0.2 0.6-0.6 0.9-1.1 0.9h-0.2c-2.3-0.4-3.5-0.6-5.8-1-0.3-0.1-0.6-0.2-0.8-0.5-0.2-0.2-0.3-0.5-0.2-0.8v-0.1c0.2-0.6 0.3-1.4 0.5-2.4s0.4-2 0.6-3.1 0.4-2.1 0.6-3.2c0.2-1 0.3-1.9 0.4-2.6 0.1-0.9 0.2-1.8 0.2-2.6s-0.2-1.5-0.5-2-0.7-1-1.3-1.3-1.4-0.5-2.5-0.5c-0.7 0-1.3 0.2-2 0.7-0.6 0.4-1.4 1.3-2.4 2.4-2.4 3-3.6 4.5-6 7.4-1.6 2.1-3.4 3.5-5.2 4.3s-3.5 1.2-5.1 1.2c-2 0-3.8-0.3-5.2-0.9-1.5-0.6-2.7-1.5-3.6-2.5-0.9-1.1-1.7-2.4-2.1-3.9-0.5-1.5-0.7-3.2-0.7-5.1-2.1-0.4-3.1-0.6-5.1-1-0.3-0.1-0.6-0.3-0.8-0.5-0.2-0.3-0.3-0.6-0.2-0.9 0.4-2.7 0.6-4 1-6.7 0.1-0.6 0.5-1 1.1-1h0.2c2 0.4 2.9 0.5 4.9 0.9 0.4-1.8 0.9-3.5 1.3-5.1 0.5-1.6 0.9-2.8 1.3-3.6 0.1-0.2 0.3-0.5 0.5-0.6 0.2-0.2 0.4-0.3 0.7-0.3 0.2 0.3 0.2 0.3 0.3 0.3z" fill="#7F9F8E"/>
			
			<path d="m772.7 514.8h-195.5c-2.5-7.1-4.2-14.5-5.1-22-6.2-53.1 34.4-100.1 88.3-100.1 54.9 0.1 104.4 46.4 111.9 100.1 1.1 7.5 1.1 14.9 0.4 22z" fill="#729ACF"/>
			
				
					<path d="m560.7 445.6c-0.2 0-0.4 0-0.6-0.1-1-0.3-1.5-1.4-1.1-2.4 14.2-41 54.4-68.5 100-68.3 43.8 0 86.6 24.4 111.7 63.8 0.6 0.9 0.3 2-0.6 2.6s-2 0.3-2.6-0.6c-24.4-38.3-66-62-108.5-62h-0.3c-43.9 0-82.5 26.4-96.2 65.9-0.3 0.6-1 1.1-1.8 1.1z" fill="#F7E5B5"/>
				
				
					<path d="m718.6 390.9c0-0.1-0.2-0.5-0.5-1-2.8-5-16.8-25.6-20.6-27.1-0.8-0.3-1.7-0.2-2.3 0.3-1.6 1.2-1 2.6 3.9 9.7 2.8 4 6.3 8.8 9.3 12.5 0 0.1 0.1 0.1 0.1 0.2 3 3.8 4.9 6 6.3 7 0.5 0.4 1 0.6 1.4 0.7 0.1 0 0.3 0.1 0.4 0.1 0.4 0 0.8-0.2 1.2-0.5 0.7-0.6 0.9-1.2 0.8-1.9z" fill="#F7E5B5"/>
				
				
					<path d="m733.1 399.1c-0.4-1.7-1.5-4.5-3.4-9.6-1.2-3.2-4.4-11.2-7.4-17.5-3-6.2-4.8-9-7.2-7.9-1.7 0.9-1.7 2.2 1.7 10.9 1.9 4.9 4.5 10.8 6.9 15.8 0.5 1.1 1 2.1 1.5 3.1 1.9 3.8 3.2 5.9 4.2 7.1 0.6 0.7 1.2 1.1 1.7 1.1h0.3c0.3 0 0.6-0.1 1-0.2h0.1c0.7-0.5 1-1.1 0.6-2.8z" fill="#F7E5B5"/>
				
				
					<path d="m738 363c-0.9-1.2-2-1.2-2.5-1.1-2.1 0.4-2.3 2.3-1.3 10.8 0.6 5.2 1.6 11.8 2.8 18.2 1 5.2 1.9 9.7 2.8 13.1 0 0.2 0.1 0.5 0.2 0.7 1.3 4.8 2.3 7.1 4.2 7.1h0.5c0.6-0.1 1.2-0.6 1.4-1.2 0.1-0.2 0.1-0.6 0.1-1.2 0-7.2-4.7-42-8.2-46.4z" fill="#F7E5B5"/>
				
				
					<path d="m760.7 370c-0.8-1.5-1.9-1.8-2.5-1.8-0.4 0-1.4 0.1-2.1 1.2-2.5 4.1-3.3 33.5-2 47.9 0.3 3.1 0.6 5.5 1.1 6.8 0.1 0.2 0.2 0.4 0.2 0.5 0.4 0.6 0.8 1 1.2 1.2 0.3 0.1 0.6 0.2 0.9 0.2h0.1c0.6 0 1.3-0.3 1.6-0.9 0.1-0.2 0.3-0.7 0.5-1.5 1.8-8.4 4.3-47.2 1-53.6zm-2.4 5.8c0.8 8 0 24.9-0.9 36.2-0.4-11.1-0.1-28 0.9-36.2z" fill="#F7E5B5"/>
				
			
			
				<path d="m710.3 492.6c-1.5-12.1-3-24.1-4.5-36.2-0.1-0.9-0.9-1.6-1.8-1.6h-72.5c-0.8 0-1.5 0.5-1.8 1.3-0.2 0.8 0 1.6 0.7 2.1l24.9 17.2c-4.5 3.5-9.1 7.1-13.5 10.7l-6.9 5.4c-0.5 0.4-0.7 0.9-0.7 1.5s0.3 1.1 0.9 1.5l13.5 8.7c3.7 2.4 7.5 4.8 11.2 7.2-1.8 1.5-3.5 3.1-5.3 4.6h5.7c1.3-1.1 2.6-2.3 4-3.4 0.5-0.4 0.7-1 0.6-1.5 0-0.6-0.4-1.1-0.9-1.4-4.4-2.8-8.8-5.7-13.3-8.5-3.8-2.4-7.6-4.8-11.3-7.3 1.6-1.3 3.2-2.5 4.8-3.8 5.1-4 10.3-8.2 15.5-12.2 0.5-0.4 0.7-0.9 0.7-1.5s-0.3-1.1-0.8-1.5l-22.1-15.2h64.9c1.4 11.5 2.9 23.1 4.3 34.6 0.9 7.2 1.8 14.5 2.7 21.7h3.8c-0.9-7.6-1.9-15-2.8-22.4z" fill="#F7E5B5"/>
			
			
				<path d="m639.6 307.2c-1.1 0-2-0.9-2-1.9-1.2-40-0.1-76.5 3.3-111.7 0.1-1.1 1.1-1.9 2.2-1.8s1.9 1.1 1.8 2.2c-3.4 34.9-4.5 71.3-3.3 111.1 0 1.1-0.8 2.1-2 2.1z" fill="#64937B"/>
			
			
				<path d="m666 281.4c-1.1 0-2-0.9-2-2 0-21.2 0.6-40.8 1.7-59.9 0.1-1.1 1-1.9 2.1-1.9 1.1 0.1 1.9 1 1.9 2.1-1.1 19-1.7 38.5-1.7 59.7 0 1.1-0.9 2-2 2z" fill="#64937B"/>
			
		
	
	<path d="m902 524.8v353.3h-459.6v-353.3h459.6m10-10h-479.6v373.3h479.6v-373.3z" fill="#2B2B2B"/>
	<rect x="432.4" y="492.8" width="507.6" height="43.9" fill="#2B2B2B"/>


	
		<rect transform="matrix(.575 -.8182 .8182 .575 -.8788 898.18)" x="855.01" y="445.93" width="18.101" height="8" fill="#64937B"/>
	
		<rect transform="matrix(.4739 -.8806 .8806 .4739 87.585 976.33)" x="848.96" y="407.86" width="23.8" height="14" fill="#F7E5B5"/>
	
		<rect transform="matrix(.8 -.6 .6 .8 -87.227 635.62)" x="899.81" y="444.65" width="20" height="8" fill="#A6CEE8"/>
	
		<rect transform="matrix(.4323 -.9017 .9017 .4323 133.66 967.89)" x="828.83" y="373.79" width="13.4" height="8" fill="#A6CEE8"/>
	
		<rect transform="matrix(.429 -.9033 .9033 .429 159.68 1029)" x="889.34" y="385.56" width="8.9" height="5.3" fill="#A6CEE8"/>


	
		<rect transform="matrix(.8175 -.576 .576 .8175 -171.4 361.17)" x="480.13" y="445.6" width="8" height="10.8" fill="#64937B"/>
	
		<rect transform="matrix(.9449 -.3274 .3274 .9449 -105.01 180.53)" x="479.7" y="395.48" width="8" height="13.4" fill="#F7E5B5"/>
	
		<rect transform="matrix(.8182 -.575 .575 .8182 -156.31 334.32)" x="446.42" y="409.79" width="8" height="9" fill="#64937B"/>
	
		<rect transform="matrix(.6 -.8 .8 .6 -182.8 527.6)" x="429.2" y="436.6" width="14" height="20" fill="#A6CEE8"/>

</svg>
